<?xml version="1.0" encoding="UTF-8"?>
<svg
  xmlns:dc="http://purl.org/dc/elements/1.1/"
  xmlns:cc="http://creativecommons.org/ns#"
  xmlns:rdf="http://www.w3.org/1999/02/22-rdf-syntax-ns#"
  xmlns:svg="http://www.w3.org/2000/svg"
  xmlns="http://www.w3.org/2000/svg"
  version="1.1"
  style="width: inherit; height: inherit"
  viewBox="0 0 992.49512 503.89349"
  preserveAspectRatio="none">
  <g transform="translate(-291.12767,10.859865)">
    <path
       style="fill:#c8c8c8;fill-opacity:1;fill-rule:evenodd;stroke:#000000;stroke-width:4.50668621;stroke-linecap:round;stroke-linejoin:round;stroke-miterlimit:4;stroke-dasharray:none;stroke-opacity:1"
       d="m 512.98384,72.49496 c -6.92153,0 -12.39338,5.61269 -12.39338,12.534221 l 0,329.692269 c 0,6.92155 5.47186,12.39339 12.39338,12.39339 l 548.82986,0 c 6.9216,0 12.5343,-5.47189 12.5343,-12.39339 l 0,-329.692269 c 0,-6.921531 -5.6128,-12.534217 -12.5343,-12.534221 l -548.82986,0 z" />
    <rect
       ry="12.076607"
       rx="12.493737"
       y="100.84618"
       x="528.98767"
       height="308.63678"
       width="516.87793"
       style="fill:#c8c8c8;fill-opacity:1;fill-rule:evenodd;stroke:none" />
    <g transform="matrix(4.5066863,0,0,4.5066863,-929.57647,-2168.1352)">
      <path
         id="button-6"
         style="fill:#808080;fill-opacity:1;fill-rule:evenodd;stroke:#000000;stroke-width:1;stroke-linecap:butt;stroke-linejoin:miter;stroke-miterlimit:4;stroke-dasharray:none;stroke-opacity:1"
         d="m 292.1813,488.3336 33.15003,0 -2.59796,-4.27144 c -1.70332,-2.80052 -6.1312,-4.87889 -13.97705,-4.87889 -7.84586,0 -12.27374,2.07837 -13.97706,4.87889 l -2.59796,4.27144 z" />
      <path
         id="button-4"
         style="fill:#808080;fill-opacity:1;fill-rule:evenodd;stroke:#000000;stroke-width:1;stroke-linecap:butt;stroke-linejoin:miter;stroke-miterlimit:4;stroke-dasharray:none;stroke-opacity:1"
         d="m 292.18129,495.51872 33.15003,0 -2.59796,-4.27144 c -1.70332,-2.80052 -6.13119,-4.87889 -13.97705,-4.87889 -7.84586,0 -12.27374,2.07837 -13.97706,4.87889 l -2.59796,4.27144 z" />
    </g>
    <circle
       style="fill:#c8c8c8;fill-opacity:1;fill-rule:evenodd;stroke:#000000;stroke-width:0.99310338;stroke-linecap:round;stroke-linejoin:round;stroke-miterlimit:4;stroke-dasharray:none;stroke-opacity:1"
       transform="matrix(4.537983,0,0,4.537983,-914.37504,-2164.1721)"
       cx="303.79086"
       cy="528.9635"
       r="37.64706" />
    <circle
       transform="matrix(2.8792723,0,0,2.8792723,-246.70146,-1140.6458)"
       style="fill:#c8c8c8;fill-opacity:1;fill-rule:evenodd;stroke:#000000;stroke-width:1.56521726;stroke-linecap:round;stroke-linejoin:round;stroke-miterlimit:4;stroke-dasharray:none;stroke-opacity:1"
       cx="303.79086"
       cy="528.9635"
       r="37.64706" />
    <circle
       style="fill:#404040;fill-opacity:0.51851849;fill-rule:evenodd;stroke:#000000;stroke-width:2.3225801;stroke-linecap:round;stroke-linejoin:round;stroke-miterlimit:4;stroke-dasharray:none;stroke-opacity:1"
       transform="matrix(1.9403795,0,0,1.9403795,38.525636,-644.0057)"
       cx="303.79086"
       cy="528.9635"
       r="37.64706" />
    <g transform="matrix(4.5066863,0,0,4.5066863,-277.19951,-2168.1352)">
      <path
         id="button-7"
         style="fill:#808080;fill-opacity:1;fill-rule:evenodd;stroke:#000000;stroke-width:1;stroke-linecap:butt;stroke-linejoin:miter;stroke-miterlimit:4;stroke-dasharray:none;stroke-opacity:1"
         d="m 292.1813,488.3336 33.15003,0 -2.59796,-4.27144 c -1.70332,-2.80052 -6.1312,-4.87889 -13.97705,-4.87889 -7.84586,0 -12.27374,2.07837 -13.97706,4.87889 l -2.59796,4.27144 z" />
      <path
         id="button-5"
         style="fill:#808080;fill-opacity:1;fill-rule:evenodd;stroke:#000000;stroke-width:1;stroke-linecap:butt;stroke-linejoin:miter;stroke-miterlimit:4;stroke-dasharray:none;stroke-opacity:1"
         d="m 292.18129,495.51872 33.15003,0 -2.59796,-4.27144 c -1.70332,-2.80052 -6.13119,-4.87889 -13.97705,-4.87889 -7.84586,0 -12.27374,2.07837 -13.97706,4.87889 l -2.59796,4.27144 z" />
    </g>
    <circle
       transform="matrix(-4.537983,0,0,4.537983,2489.1255,-2164.1721)"
       style="fill:#c8c8c8;fill-opacity:1;fill-rule:evenodd;stroke:#000000;stroke-width:0.99310338;stroke-linecap:round;stroke-linejoin:round;stroke-miterlimit:4;stroke-dasharray:none;stroke-opacity:1"
       cx="303.79086"
       cy="528.9635"
       r="37.64706" />
    <path
       d="m 1075.46,109.99762 c -6.9215,0 -12.5342,5.61263 -12.5342,12.53422 l 0,66.05112 -66.19195,0 c -6.92155,0 -12.39343,5.61263 -12.39339,12.53423 l 0,70.27614 c 0,6.92154 5.47193,12.53417 12.39339,12.53422 l 66.19195,0 0,66.05112 c 0,6.92155 5.6126,12.53413 12.5342,12.53422 l 70.2762,0 c 6.9215,0 12.3933,-5.61276 12.3934,-12.53422 l 0,-66.05112 66.1919,0 c 6.9216,0 12.3934,-5.61272 12.3934,-12.53422 l 0,-70.27614 c 0,-6.92155 -5.4718,-12.53423 -12.3934,-12.53423 l -66.1919,0 0,-66.05112 c 0,-6.92155 -5.4719,-12.53422 -12.3934,-12.53422 l -70.2762,0 z"
       style="fill:#404040;fill-opacity:1;fill-rule:evenodd;stroke:none" />
    <rect
       id="button-6"
       style="fill:#595959;fill-opacity:1;fill-rule:evenodd;stroke:#000000;stroke-width:4.50668621;stroke-linecap:round;stroke-linejoin:round;stroke-miterlimit:4;stroke-dasharray:none;stroke-opacity:1"
       width="52.430733"
       height="30.044577"
       x="685.43219"
       y="241.14032"
       rx="7.0693121"
       ry="7.0693121" />
    <circle
       id="button-16"
       style="fill:#595959;fill-opacity:1;fill-rule:evenodd;stroke:#000000;stroke-width:1;stroke-linecap:round;stroke-linejoin:round;stroke-miterlimit:4;stroke-dasharray:none;stroke-opacity:1"
       transform="matrix(6.2172,0,0,6.2172,-1542.9764,-3223.4548)"
       cx="374.24835"
       cy="545.82623"
       r="5.7516341" />
    <circle
       id="button-3"
       style="fill:#c8c8c8;fill-opacity:1;fill-rule:evenodd;stroke:#454545;stroke-width:1;stroke-linecap:round;stroke-linejoin:round;stroke-miterlimit:4;stroke-dasharray:none;stroke-opacity:1"
       transform="matrix(4.5066863,0,0,4.5066863,-932.50349,-2144.6719)"
       cx="453.33334"
       cy="510.66284"
       r="8.2352943" />
    <circle
       id="button-0"
       transform="matrix(4.5066863,0,0,4.5066863,-932.50349,-1985.0233)"
       style="fill:#c8c8c8;fill-opacity:1;fill-rule:evenodd;stroke:#454545;stroke-width:1;stroke-linecap:round;stroke-linejoin:round;stroke-miterlimit:4;stroke-dasharray:none;stroke-opacity:1"
       cx="453.33334"
       cy="510.66284"
       r="8.2352943" />
    <circle
       id="button-1"
       transform="matrix(-4.5066863,0,0,-4.5066863,3233.3832,2537.9468)"
       style="fill:#c8c8c8;fill-opacity:1;fill-rule:evenodd;stroke:#454545;stroke-width:1;stroke-linecap:round;stroke-linejoin:round;stroke-miterlimit:4;stroke-dasharray:none;stroke-opacity:1"
       cx="453.33334"
       cy="510.66284"
       r="8.2352943" />
    <circle
       id="button-2"
       style="fill:#c8c8c8;fill-opacity:1;fill-rule:evenodd;stroke:#454545;stroke-width:1;stroke-linecap:round;stroke-linejoin:round;stroke-miterlimit:4;stroke-dasharray:none;stroke-opacity:1"
       transform="matrix(-4.5066863,0,0,-4.5066863,3073.7346,2537.9468)"
       cx="453.33334"
       cy="510.66284"
       r="8.2352943" />
    <path
       style="fill:#404040;fill-opacity:1;fill-rule:evenodd;stroke:none"
       d="m 428.34859,107.82441 c -6.92155,0 -12.53422,5.61263 -12.53422,12.53422 l 0,66.05112 -66.19195,0 c -6.92155,0 -12.39344,5.61263 -12.39339,12.53422 l 0,70.27614 c 0,6.92155 5.47193,12.53418 12.39339,12.53422 l 66.19195,0 0,66.05112 c 0,6.92155 5.61263,12.53413 12.53422,12.53422 l 70.27614,0 c 6.92155,0 12.39334,-5.61276 12.39339,-12.53422 l 0,-66.05112 66.19195,0 c 6.92155,0 12.39339,-5.61271 12.39339,-12.53422 l 0,-70.27614 c 0,-6.92155 -5.47179,-12.53422 -12.39339,-12.53422 l -66.19195,0 0,-66.05112 c 0,-6.92155 -5.47188,-12.53422 -12.39339,-12.53422 l -70.27614,0 z" />
    <circle
       style="fill:#c8c8c8;fill-opacity:1;fill-rule:evenodd;stroke:#000000;stroke-width:1.56521726;stroke-linecap:round;stroke-linejoin:round;stroke-miterlimit:4;stroke-dasharray:none;stroke-opacity:1"
       transform="matrix(2.8792723,0,0,2.8792723,69.06114,-1140.6458)"
       cx="303.79086"
       cy="528.9635"
       r="37.64706" />
    <circle
       transform="matrix(1.9403795,0,0,1.9403795,354.28823,-644.0057)"
       style="fill:#404040;fill-opacity:0.51764706;fill-rule:evenodd;stroke:#000000;stroke-width:2.3225801;stroke-linecap:round;stroke-linejoin:round;stroke-miterlimit:4;stroke-dasharray:none;stroke-opacity:1"
       cx="303.79086"
       cy="528.9635"
       r="37.64706" />
    <g
       style="fill:#c8c8c8;fill-opacity:1"
       transform="matrix(4.5066863,0,0,4.5066863,-931.9665,-2151.1521)">
      <path
         style="fill:#c8c8c8;fill-opacity:1;fill-rule:evenodd;stroke:none"
         d="m 279.9716,514.41351 -12.66533,7.31233 0,-14.62466 z"
         transform="matrix(0,-0.2837353,-0.5174088,0,575.78708,583.63867)" />
      <path
         transform="matrix(0,0.2837353,-0.5174088,0,575.78708,474.89258)"
         d="m 279.9716,514.41351 -12.66533,7.31233 0,-14.62466 z"
         style="fill:#c8c8c8;fill-opacity:1;fill-rule:evenodd;stroke:none" />
      <path
         transform="matrix(0.2837353,0,0,-0.5174088,255.25195,795.4277)"
         d="m 279.9716,514.41351 -12.66533,7.31233 0,-14.62466 z"
         style="fill:#c8c8c8;fill-opacity:1;fill-rule:evenodd;stroke:none" />
      <path
         style="fill:#c8c8c8;fill-opacity:1;fill-rule:evenodd;stroke:none"
         d="m 279.9716,514.41351 -12.66533,7.31233 0,-14.62466 z"
         transform="matrix(-0.2837353,0,0,-0.5174088,363.99805,795.4277)" />
    </g>
    <rect
       id="button-9"
       style="fill:#595959;fill-opacity:1;fill-rule:evenodd;stroke:#000000;stroke-width:4.50668621;stroke-linecap:round;stroke-linejoin:round;stroke-miterlimit:4;stroke-dasharray:none;stroke-opacity:1"
       width="52.430733"
       height="30.044577"
       x="829.04095"
       y="241.14032"
       rx="7.0693121"
       ry="7.0693121" />
  </g>
</svg>
